<?xml version="1.0" encoding="UTF-8" standalone="no"?>
<svg
   width="658mm"
   height="276mm"
   viewBox="0 0 658 276"
   version="1.1"
   id="svg1"
   xmlns="http://www.w3.org/2000/svg">
   <defs
      id="defs1">
      <rect
         x="398.65955"
         y="208.66011"
         width="92.455086"
         height="27.142778"
         id="rect7" />
      <rect
         x="398.65955"
         y="208.66011"
         width="92.455086"
         height="27.142778"
         id="rect7-5" />
   </defs>
   <rect
      id="rect81-4"
      width="163.60416"
      height="138.24437"
      x="164.46198"
      y="-0.7959888" />
   <rect
      id="rect81"
      width="163.60416"
      height="138.24437"
      x="-0.44884542"
      y="-0.22442295" />
   <rect
      id="cda-dev"
      width="28.296993"
      height="72.706314"
      x="65.576706"
      y="9.6457529">
   </rect>
   <text
      x="67.851219"
      y="16.546688"
      id="text1-5">
      <tspan
         id="tspan1-0"
         x="67.851219"
         y="16.546688">CDA</tspan>
      <tspan
         x="67.851219"
         y="23.602238"
         id="tspan9">Master</tspan>
      <tspan
         x="67.851219"
         y="30.657789"
         id="tspan69">(WD)</tspan>
   </text>
   <rect id="sap-cda-dev"
      width="28.476416"
      height="48.648083"
      x="65.888603"
      y="84.327911">
   </rect>
   <text
      x="68.252823"
      y="91.318565"
      id="text1-5-9">
      <tspan
         x="68.252823"
         y="91.318565"
         id="tspan10">CDA</tspan>
      <tspan
         x="68.252823"
         y="98.374115"
         id="tspan11">(SAP)</tspan>
   </text>
   <path
      fill="#505158" stroke="#000000" stroke-width="1.0"
      d="m 98.274291,84.628416 55.687109,0.215446 4.94997,5.170703 -4.53747,4.524368 -55.687119,-0.215447 5.362469,-5.170705 z"
      id="sap-cda-colleague-api-dev">
   </path>
   <text
      x="106.77796"
      y="91.37915"
      id="text8-00">
      <tspan
         id="tspan8-30"
         x="106.77796"
         y="91.37915">Colleague API</tspan>
   </text>
   <path
      fill="#505158" stroke="#000000" stroke-width="1.0"
      d="m 98.492141,97.951497 55.687109,0.215446 4.94997,5.170707 -4.53747,4.52436 -55.687119,-0.21544 5.362469,-5.17071 z"
      id="sap-cda-org-unit-api-dev">
   </path>
   <text
      x="106.99581"
      y="104.70223"
      id="text8-0-8">
      <tspan
         id="tspan8-7-6"
         x="106.99581"
         y="104.70223">OrgUnit API</tspan>
   </text>
   <path
      fill="#505158" stroke="#000000" stroke-width="1.0"
      d="m 98.50153,110.49324 55.68711,0.21545 4.94997,5.1707 -4.53747,4.52437 -55.68712,-0.21545 5.36247,-5.17071 z"
      id="sap-cda-position-api-dev">
   </path>
   <text
      x="107.0052"
      y="117.24397"
      id="text8-8-1">
      <tspan
         id="tspan8-4-6"
         x="107.0052"
         y="117.24397">Position API</tspan>
   </text>
   <path
      fill="#505158" stroke="#000000" stroke-width="1.0"
      d="m 98.622005,122.59798 55.687115,0.21545 4.94997,5.1707 -4.53747,4.52437 -55.687125,-0.21545 5.362475,-5.1707 z"
      id="sap-cda-file-api-dev">
   </path>
   <text
      x="107.12567"
      y="129.34872"
      id="text8-3-7-3">
      <tspan
         id="tspan8-3-4-1"
         x="107.12567"
         y="129.34872">File API</tspan>
   </text>
   <path
      fill="#505158" stroke="#000000" stroke-width="1.0"
      d="m 97.872687,9.856546 55.687113,0.215446 4.94997,5.170703 -4.53747,4.524368 -55.687123,-0.215447 5.362473,-5.170705 z"
      id="cda-colleague-api-dev">
   </path>
   <text
      x="106.37635"
      y="16.607281"
      id="text8">
      <tspan
         id="tspan8"
         x="106.37635"
         y="16.607281">Colleague API</tspan>
   </text>
   <path
      fill="#505158" stroke="#000000" stroke-width="1.0"
      d="m 98.090537,23.179627 55.687113,0.215446 4.94997,5.170703 -4.53747,4.524368 -55.687123,-0.215447 5.362473,-5.170705 z"
      id="cda-org-unit-api-dev">
   </path>
   <text
      x="106.5942"
      y="29.930361"
      id="text8-0">
      <tspan
         id="tspan8-7"
         x="106.5942"
         y="29.930361">OrgUnit API</tspan>
   </text>
   <path
      fill="#505158" stroke="#000000" stroke-width="1.0"
      d="m 98.099925,35.721369 55.687115,0.215446 4.94997,5.170703 -4.53747,4.524368 -55.687125,-0.215447 5.362475,-5.170705 z"
      id="cda-position-api-dev">
   </path>
   <text
      x="106.60359"
      y="42.472103"
      id="text8-8">
      <tspan
         id="tspan8-4"
         x="106.60359"
         y="42.472103">Position API</tspan>
   </text>
   <path
      fill="#505158" stroke="#000000" stroke-width="1.0"
      d="m 97.908585,48.000838 55.687105,0.215446 4.94997,5.170704 -4.53747,4.524368 -55.687115,-0.215447 5.362465,-5.170705 z"
      id="cda-job-api-dev">
   </path>
   <text
      x="106.41225"
      y="54.751572"
      id="text8-4">
      <tspan
         id="tspan8-1"
         x="106.41225"
         y="54.751572">Job API</tspan>
   </text>
   <path
      fill="#505158" stroke="#000000" stroke-width="1.0"
      d="m 97.861346,60.093735 55.687114,0.215446 4.94997,5.170703 -4.53747,4.524369 -55.687124,-0.215447 5.362474,-5.170705 z"
      id="cda-location-api-dev">
   </path>
   <text
      x="106.36501"
      y="66.844467"
      id="text8-3">
      <tspan
         id="tspan8-3"
         x="106.36501"
         y="66.844467">Location API</tspan>
   </text>
   <path
      fill="#505158" stroke="#000000" stroke-width="1.0"
      d="m 98.220401,72.063764 55.687119,0.215446 4.94997,5.170703 -4.53748,4.524368 -55.687119,-0.215447 5.362479,-5.170705 z"
      id="cda-file-api-dev">
   </path>
   <text
      x="106.72407"
      y="78.814499"
      id="text8-3-7">
      <tspan
         id="tspan8-3-4"
         x="106.72407"
         y="78.814499">File API</tspan>
   </text>
   <path
      fill="#505158" stroke="#000000" stroke-width="1.0"
      d="m 2.505094,84.565126 55.68711,0.215446 4.94997,5.170703 -4.53747,4.524368 -55.68712,-0.215447 5.36247,-5.170705 z"
      id="cda-sap-api-dev">
   </path>
   <text
      x="11.008761"
      y="91.315857"
      id="text8-48">
      <tspan
         id="tspan8-75"
         x="11.008761"
         y="91.315857">SAP API</tspan>
   </text>
   <path
      fill="#505158" stroke="#000000" stroke-width="1.0"
      d="m 2.9473667,9.6900815 55.6871103,0.215446 4.94997,5.1707035 -4.53747,4.524368 -55.6871203,-0.215447 5.36247,-5.170705 z"
      id="cda-workday-api-dev">
   </path>
   <text
      x="11.451034"
      y="16.440815"
      id="text8-0-3">
      <tspan
         id="tspan8-7-2"
         x="11.451034"
         y="16.440815">Workday API</tspan>
   </text>
   <rect id="cda-test"
      width="28.296993"
      height="72.706314"
      x="232.08441"
      y="9.590312">
   </rect>
   <rect id="rect81-4-9"
      width="163.60416"
      height="138.24437"
      x="165.10941"
      y="138.17824" />
   <text
      x="234.35893"
      y="16.491247"
      id="text1-5-5">
      <tspan
         id="tspan1-0-0"
         x="234.35893"
         y="16.491247">CDA</tspan>
      <tspan
         x="234.35893"
         y="23.546797"
         id="tspan9-5">Master</tspan>
      <tspan
         x="234.35893"
         y="30.602348"
         id="tspan70">(SAP)</tspan>
   </text>
   <rect id="workday-cda-test"
      width="28.476416"
      height="48.648083"
      x="232.39632"
      y="84.272469">
   </rect>
   <text
      x="234.76053"
      y="91.263123"
      id="text1-5-9-7">
      <tspan
         x="234.76053"
         y="91.263123"
         id="tspan10-9">CDA</tspan>
      <tspan
         x="234.76053"
         y="98.318672"
         id="tspan11-7">(WD)</tspan>
   </text>
   <path
      fill="#505158" stroke="#000000" stroke-width="1.0"
      d="m 264.782,84.572975 55.68711,0.215446 4.94997,5.170703 -4.53747,4.524368 -55.68712,-0.215447 5.36247,-5.170705 z"
      id="workday-cda-colleague-api-test">
   </path>
   <text
      x="273.28568"
      y="91.323708"
      id="text8-00-9">
      <tspan
         id="tspan8-30-9"
         x="273.28568"
         y="91.323708">Colleague API</tspan>
   </text>
   <rect id="rect81-4-5"
      width="163.60416"
      height="138.24437"
      x="-1.0856997"
      y="137.95366" />
   <path
      fill="#505158" stroke="#000000" stroke-width="1.0"
      d="m 264.99985,97.896056 55.68711,0.215446 4.94997,5.170708 -4.53747,4.52436 -55.68712,-0.21544 5.36247,-5.17071 z"
      id="workday-cda-org-unit-api-test">
   </path>
   <text
      x="273.50351"
      y="104.64679"
      id="text8-0-8-1">
      <tspan
         id="tspan8-7-6-5"
         x="273.50351"
         y="104.64679">OrgUnit API</tspan>
   </text>
   <path
      fill="#505158" stroke="#000000" stroke-width="1.0"
      d="m 265.00924,110.4378 55.68711,0.21544 4.94997,5.17071 -4.53747,4.52437 -55.68712,-0.21545 5.36247,-5.17071 z"
      id="workday-cda-position-api-test">
   </path>
   <text
      x="273.51291"
      y="117.18853"
      id="text8-8-1-3">
      <tspan
         id="tspan8-4-6-0"
         x="273.51291"
         y="117.18853">Position API</tspan>
   </text>
   <path
      fill="#505158" stroke="#000000" stroke-width="1.0"
      d="m 265.12972,122.54254 55.68711,0.21545 4.94997,5.1707 -4.53747,4.52437 -55.68712,-0.21545 5.36247,-5.1707 z"
      id="workday-cda-file-api-test">
   </path>
   <text
      x="273.63339"
      y="129.29327"
      id="text8-3-7-3-7">
      <tspan
         id="tspan8-3-4-1-6"
         x="273.63339"
         y="129.29327">File API</tspan>
   </text>
   <path
      fill="#505158" stroke="#000000" stroke-width="1.0"
      d="m 264.3804,9.801105 55.68711,0.215446 4.94997,5.170703 -4.53747,4.524368 -55.68712,-0.215447 5.36247,-5.170705 z"
      id="cda-colleague-api-test">
   </path>
   <text
      x="272.88406"
      y="16.55184"
      id="text8-5">
      <tspan
         id="tspan8-2"
         x="272.88406"
         y="16.55184">Colleague API</tspan>
   </text>
   <path
      fill="#505158" stroke="#000000" stroke-width="1.0"
      d="m 264.59825,23.124186 55.68711,0.215446 4.94997,5.170703 -4.53747,4.524368 -55.68712,-0.215447 5.36247,-5.170705 z"
      id="cda-org-unit-api-test">
   </path>
   <text
      x="273.10193"
      y="29.87492"
      id="text8-0-4">
      <tspan
         id="tspan8-7-7"
         x="273.10193"
         y="29.87492">OrgUnit API</tspan>
   </text>
   <path
      fill="#505158" stroke="#000000" stroke-width="1.0"
      d="m 264.60763,35.665928 55.68711,0.215446 4.94997,5.170703 -4.53747,4.524368 -55.68712,-0.215447 5.36247,-5.170705 z"
      id="cda-position-api-test">
   </path>
   <text
      x="273.1113"
      y="42.41666"
      id="text8-8-6">
      <tspan
         id="tspan8-4-1"
         x="273.1113"
         y="42.41666">Position API</tspan>
   </text>
   <path
      fill="#505158" stroke="#000000" stroke-width="1.0"
      d="m 264.41629,47.945397 55.68711,0.215446 4.94997,5.170703 -4.53747,4.524368 -55.68712,-0.215447 5.36247,-5.170705 z"
      id="cda-job-api-test">
   </path>
   <text
      x="272.91995"
      y="54.696133"
      id="text8-4-1">
      <tspan
         id="tspan8-1-3"
         x="272.91995"
         y="54.696133">Job API</tspan>
   </text>
   <path
      fill="#505158" stroke="#000000" stroke-width="1.0"
      d="m 264.36906,60.038294 55.68711,0.215446 4.94997,5.170703 -4.53747,4.524368 -55.68712,-0.215447 5.36247,-5.170705 z"
      id="cda-location-api-test">
   </path>
   <text
      x="272.87274"
      y="66.789032"
      id="text8-3-9">
      <tspan
         id="tspan8-3-43"
         x="272.87274"
         y="66.789032">Location API</tspan>
   </text>
   <path
      fill="#505158" stroke="#000000" stroke-width="1.0"
      d="m 264.72811,72.008323 55.68711,0.215446 4.94997,5.170703 -4.53747,4.524368 -55.68712,-0.215447 5.36247,-5.170705 z"
      id="cda-file-api-test">
   </path>
   <text
      x="273.23178"
      y="78.759056"
      id="text8-3-7-1">
      <tspan
         id="tspan8-3-4-7"
         x="273.23178"
         y="78.759056">File API</tspan>
   </text>
   <path
      fill="#505158" stroke="#000000" stroke-width="1.0"
      d="m 169.0128,9.776923 55.68711,0.215446 4.94997,5.170703 -4.53747,4.524368 -55.68712,-0.215447 5.36247,-5.170705 z"
      id="cda-sap-api-test">
   </path>
   <text
      x="177.51646"
      y="16.527657"
      id="text8-48-4">
      <tspan
         id="tspan8-75-6"
         x="177.51646"
         y="16.527657">SAP API</tspan>
   </text>
   <path
      fill="#505158" stroke="#000000" stroke-width="1.0"
      d="m 169.45507,84.367402 55.68711,0.215446 4.94997,5.170703 -4.53747,4.524368 -55.68712,-0.215447 5.36247,-5.170705 z"
      id="cda-workday-api-test">
   </path>
   <text
      x="177.95874"
      y="91.118134"
      id="text8-0-3-2">
      <tspan
         id="tspan8-7-2-2"
         x="177.95874"
         y="91.118134">Workday API</tspan>
   </text>
   <rect id="rect11"
      width="4.039609"
      height="276.41452"
      x="161.58437"
      y="0.22442271" />
   <rect id="rect11-4"
      width="4.0396085"
      height="328.60489"
      x="136.62587"
      y="-328.65756"
      transform="matrix(3.2709907e-4,0.99999995,-0.99999988,4.839413e-4,0,0)" />
   <rect id="cda-stress"
      width="28.296993"
      height="72.706314"
      x="66.536743"
      y="148.33995">
   </rect>
   <text
      x="68.811264"
      y="155.24089"
      id="text1-5-5-0">
      <tspan
         id="tspan1-0-0-8"
         x="68.811264"
         y="155.24089">CDA</tspan>
      <tspan
         x="68.811264"
         y="162.29645"
         id="tspan9-5-8">Master</tspan>
      <tspan
         x="68.811264"
         y="169.35199"
         id="tspan70-2">(WD)</tspan>
   </text>
   <rect id="sap-cda-stress"
      width="28.476416"
      height="48.648083"
      x="66.848648"
      y="223.02213">
   </rect>
   <rect id="cda-sandbox"
      width="28.296993"
      height="72.706314"
      x="232.73184"
      y="148.56454">
   </rect>
   <text
      x="235.00636"
      y="155.46547"
      id="text1-5-5-2">
      <tspan
         id="tspan1-0-0-6"
         x="235.00636"
         y="155.46547">CDA</tspan>
      <tspan
         x="235.00636"
         y="162.52103"
         id="tspan9-5-7">Master</tspan>
      <tspan
         x="235.00636"
         y="169.57657"
         id="tspan70-6">(SAP)</tspan>
   </text>
   <rect id="workday-cda-sandbox"
      width="28.476416"
      height="48.648083"
      x="233.04375"
      y="223.2467">
   </rect>
   <text
      x="235.40796"
      y="230.23735"
      id="text1-5-9-7-3">
      <tspan
         x="235.40796"
         y="230.23735"
         id="tspan10-9-6">CDA</tspan>
      <tspan
         x="235.40796"
         y="237.29291"
         id="tspan11-7-57">(WD)</tspan>
   </text>
   <path
      fill="#505158" stroke="#000000" stroke-width="1.0"
      d="m 265.42943,223.5472 55.68711,0.21545 4.94997,5.1707 -4.53747,4.52437 -55.68712,-0.21545 5.36247,-5.1707 z"
      id="workday-cda-colleague-api-sandbox">
   </path>
   <text
      x="273.93311"
      y="230.29794"
      id="text8-00-9-5">
      <tspan
         id="tspan8-30-9-0"
         x="273.93311"
         y="230.29794">Colleague API</tspan>
   </text>
   <path
      fill="#505158" stroke="#000000" stroke-width="1.0"
      d="m 265.64728,236.87029 55.68711,0.21544 4.94997,5.17071 -4.53747,4.52436 -55.68712,-0.21544 5.36247,-5.17071 z"
      id="workday-cda-org-unit-api-sandbox">
   </path>
   <text
      x="274.15094"
      y="243.62102"
      id="text8-0-8-1-5">
      <tspan
         id="tspan8-7-6-5-9"
         x="274.15094"
         y="243.62102">OrgUnit API</tspan>
   </text>
   <path
      fill="#505158" stroke="#000000" stroke-width="1.0"
      d="m 265.65667,249.41203 55.68711,0.21544 4.94997,5.17071 -4.53747,4.52437 -55.68712,-0.21545 5.36247,-5.17071 z"
      id="workday-cda-position-api-sandbox">
   </path>
   <text
      x="274.16034"
      y="256.16278"
      id="text8-8-1-3-8">
      <tspan
         id="tspan8-4-6-0-9"
         x="274.16034"
         y="256.16278">Position API</tspan>
   </text>
   <path
      fill="#505158" stroke="#000000" stroke-width="1.0"
      d="m 265.77715,261.51677 55.68711,0.21545 4.94997,5.1707 -4.53747,4.52437 -55.68712,-0.21545 5.36247,-5.1707 z"
      id="workday-cda-file-api-sandbox">
   </path>
   <text
      x="274.28082"
      y="268.26752"
      id="text8-3-7-3-7-3">
      <tspan
         id="tspan8-3-4-1-6-26"
         x="274.28082"
         y="268.26752">File API</tspan>
   </text>
   <path
      fill="#505158" stroke="#000000" stroke-width="1.0"
      d="m 265.02783,148.77533 55.68711,0.21545 4.94997,5.1707 -4.53747,4.52437 -55.68712,-0.21545 5.36247,-5.1707 z"
      id="cda-colleague-api-test-6">
   </path>
   <text
      x="273.53149"
      y="155.52606"
      id="text8-5-4">
      <tspan
         id="tspan8-2-4"
         x="273.53149"
         y="155.52606">Colleague API</tspan>
   </text>
   <path
      fill="#505158" stroke="#000000" stroke-width="1.0"
      d="m 265.24568,162.09842 55.68711,0.21544 4.94997,5.1707 -4.53747,4.52437 -55.68712,-0.21544 5.36247,-5.17071 z"
      id="cda-org-unit-api-sandbox">
   </path>
   <text
      x="273.74936"
      y="168.84915"
      id="text8-0-4-8">
      <tspan
         id="tspan8-7-7-9"
         x="273.74936"
         y="168.84915">OrgUnit API</tspan>
   </text>
   <path
      fill="#505158" stroke="#000000" stroke-width="1.0"
      d="m 265.25506,174.64016 55.68711,0.21544 4.94997,5.17071 -4.53747,4.52436 -55.68712,-0.21544 5.36247,-5.17071 z"
      id="cda-position-api-sandbox">
   </path>
   <text
      x="273.75873"
      y="181.39088"
      id="text8-8-6-7">
      <tspan
         id="tspan8-4-1-2"
         x="273.75873"
         y="181.39088">Position API</tspan>
   </text>
   <path
      fill="#505158" stroke="#000000" stroke-width="1.0"
      d="m 265.06372,186.91963 55.68711,0.21544 4.94997,5.17071 -4.53747,4.52436 -55.68712,-0.21544 5.36247,-5.17071 z"
      id="cda-job-api-sandbox">
   </path>
   <text
      x="273.56738"
      y="193.67036"
      id="text8-4-1-2">
      <tspan
         id="tspan8-1-3-58"
         x="273.56738"
         y="193.67036">Job API</tspan>
   </text>
   <path
      fill="#505158" stroke="#000000" stroke-width="1.0"
      d="m 265.01649,199.01252 55.68711,0.21545 4.94997,5.1707 -4.53747,4.52437 -55.68712,-0.21545 5.36247,-5.1707 z"
      id="cda-location-api-sandbox">
   </path>
   <text
      x="273.52017"
      y="205.76326"
      id="text8-3-9-3">
      <tspan
         id="tspan8-3-43-3"
         x="273.52017"
         y="205.76326">Location API</tspan>
   </text>
   <path
      fill="#505158" stroke="#000000" stroke-width="1.0"
      d="m 265.37554,210.98255 55.68711,0.21545 4.94997,5.1707 -4.53747,4.52437 -55.68712,-0.21545 5.36247,-5.1707 z"
      id="cda-file-api-sandbox">
   </path>
   <text
      x="273.87921"
      y="217.73329"
      id="text8-3-7-1-16">
      <tspan
         id="tspan8-3-4-7-3"
         x="273.87921"
         y="217.73329">File API</tspan>
   </text>
   <path
      fill="#505158" stroke="#000000" stroke-width="1.0"
      d="m 169.66023,148.75115 55.68711,0.21545 4.94997,5.1707 -4.53747,4.52437 -55.68712,-0.21545 5.36247,-5.1707 z"
      id="cda-sap-api-sandbox">
   </path>
   <text
      x="178.16389"
      y="155.50189"
      id="text8-48-4-96">
      <tspan
         id="tspan8-75-6-6"
         x="178.16389"
         y="155.50189">SAP API</tspan>
   </text>
   <path
      fill="#505158" stroke="#000000" stroke-width="1.0"
      d="m 170.1025,223.34163 55.68711,0.21545 4.94997,5.1707 -4.53747,4.52437 -55.68712,-0.21545 5.36247,-5.1707 z"
      id="cda-workday-api-sandbox">
   </path>
   <text
      x="178.60617"
      y="230.09236"
      id="text8-0-3-2-5">
      <tspan
         id="tspan8-7-2-2-7"
         x="178.60617"
         y="230.09236">Workday API</tspan>
   </text>
   <text
      x="69.21286"
      y="230.01276"
      id="text1-5-9-7-0">
      <tspan
         x="69.21286"
         y="230.01276"
         id="tspan10-9-9">CDA</tspan>
      <tspan
         x="69.21286"
         y="237.06831"
         id="tspan11-7-5">(SAP)</tspan>
   </text>
   <path
      fill="#505158" stroke="#000000" stroke-width="1.0"
      d="m 99.234326,223.32262 55.687114,0.21544 4.94997,5.1707 -4.53747,4.52437 -55.687124,-0.21545 5.362474,-5.1707 z"
      id="sap-cda-colleague-api-stress">
   </path>
   <text
      x="107.738"
      y="230.07336"
      id="text8-00-9-8">
      <tspan
         id="tspan8-30-9-9"
         x="107.738"
         y="230.07336">Colleague API</tspan>
   </text>
   <path
      fill="#505158" stroke="#000000" stroke-width="1.0"
      d="m 99.452176,236.6457 55.687114,0.21544 4.94997,5.17071 -4.53747,4.52436 -55.687124,-0.21544 5.362474,-5.17071 z"
      id="sap-cda-org-unit-api-stress">
   </path>
   <text
      x="107.95583"
      y="243.39642"
      id="text8-0-8-1-4">
      <tspan
         id="tspan8-7-6-5-0"
         x="107.95583"
         y="243.39642">OrgUnit API</tspan>
   </text>
   <path
      fill="#505158" stroke="#000000" stroke-width="1.0"
      d="m 99.461566,249.18744 55.687114,0.21544 4.94997,5.17071 -4.53747,4.52437 -55.687124,-0.21545 5.362474,-5.17071 z"
      id="sap-cda-position-api-stress">
   </path>
   <text
      x="107.96523"
      y="255.93817"
      id="text8-8-1-3-1">
      <tspan
         id="tspan8-4-6-0-4"
         x="107.96523"
         y="255.93817">Position API</tspan>
   </text>
   <path
      fill="#505158" stroke="#000000" stroke-width="1.0"
      d="m 99.582046,261.29218 55.687114,0.21545 4.94997,5.1707 -4.53747,4.52437 -55.687124,-0.21545 5.362474,-5.1707 z"
      id="sap-cda-file-api-stress">
   </path>
   <text
      x="108.08572"
      y="268.04291"
      id="text8-3-7-3-7-0">
      <tspan
         id="tspan8-3-4-1-6-2"
         x="108.08572"
         y="268.04291">File API</tspan>
   </text>
   <path
      fill="#505158" stroke="#000000" stroke-width="1.0"
      d="m 98.832726,148.55074 55.687114,0.21545 4.94997,5.1707 -4.53747,4.52437 -55.687124,-0.21545 5.362474,-5.1707 z"
      id="cda-colleague-api-stress">
   </path>
   <text
      x="107.33639"
      y="155.30148"
      id="text8-5-0">
      <tspan
         id="tspan8-2-1"
         x="107.33639"
         y="155.30148">Colleague API</tspan>
   </text>
   <path
      fill="#505158" stroke="#000000" stroke-width="1.0"
      d="m 99.050576,161.87383 55.687114,0.21544 4.94997,5.1707 -4.53747,4.52437 -55.687124,-0.21544 5.362474,-5.17071 z"
      id="cda-org-unit-api-stress">
   </path>
   <text
      x="107.55425"
      y="168.62456"
      id="text8-0-4-0">
      <tspan
         id="tspan8-7-7-4"
         x="107.55425"
         y="168.62456">OrgUnit API</tspan>
   </text>
   <path
      fill="#505158" stroke="#000000" stroke-width="1.0"
      d="m 99.059956,174.41557 55.687114,0.21544 4.94997,5.17071 -4.53747,4.52436 -55.687124,-0.21544 5.362474,-5.17071 z"
      id="cda-position-api-stress">
   </path>
   <text
      x="107.56362"
      y="181.16631"
      id="text8-8-6-4">
      <tspan
         id="tspan8-4-1-1"
         x="107.56362"
         y="181.16631">Position API</tspan>
   </text>
   <path
      fill="#505158" stroke="#000000" stroke-width="1.0"
      d="m 98.868616,186.69504 55.687114,0.21544 4.94997,5.17071 -4.53747,4.52436 -55.687124,-0.21544 5.362474,-5.17071 z"
      id="cda-job-api-stress">
   </path>
   <text
      x="107.37228"
      y="193.44577"
      id="text8-4-1-1">
      <tspan
         id="tspan8-1-3-5"
         x="107.37228"
         y="193.44577">Job API</tspan>
   </text>
   <path
      fill="#505158" stroke="#000000" stroke-width="1.0"
      d="m 98.821386,198.78793 55.687114,0.21545 4.94997,5.1707 -4.53747,4.52437 -55.687124,-0.21545 5.362474,-5.1707 z"
      id="cda-location-api-stress">
   </path>
   <text
      x="107.32507"
      y="205.53868"
      id="text8-3-9-2">
      <tspan
         id="tspan8-3-43-0"
         x="107.32507"
         y="205.53868">Location API</tspan>
   </text>
   <path
      fill="#505158" stroke="#000000" stroke-width="1.0"
      d="m 99.180436,210.75796 55.687114,0.21545 4.94997,5.1707 -4.53747,4.52437 -55.687124,-0.21545 5.362474,-5.1707 z"
      id="cda-file-api-stress">
   </path>
   <text
      x="107.6841"
      y="217.5087"
      id="text8-3-7-1-1">
      <tspan
         id="tspan8-3-4-7-6"
         x="107.6841"
         y="217.5087">File API</tspan>
   </text>
   <path
      fill="#505158" stroke="#000000" stroke-width="1.0"
      d="m 2.7899508,222.79578 55.6871102,0.21545 4.94997,5.1707 -4.53747,4.52437 -55.6871202,-0.21545 5.36247,-5.1707 z"
      id="cda-sap-api-stress">
   </path>
   <text
      x="11.293614"
      y="229.54652"
      id="text8-48-4-9">
      <tspan
         id="tspan8-75-6-7"
         x="11.293614"
         y="229.54652">SAP API</tspan>
   </text>
   <path
      fill="#505158" stroke="#000000" stroke-width="1.0"
      d="m 2.557046,148.84782 55.68711,0.21545 4.94997,5.1707 -4.53747,4.52437 -55.68712,-0.21545 5.36247,-5.1707 z"
      id="cda-workday-api-stress">
   </path>
   <text
      x="11.060716"
      y="155.59854"
      id="text8-0-3-2-6">
      <tspan
         id="tspan8-7-2-2-1"
         x="11.060716"
         y="155.59854">Workday API</tspan>
   </text>
   <rect id="rect11-0"
      width="4.039609"
      height="276.41452"
      x="327.89554"
      y="0.16738547" />
   <rect id="rect81-4-9-8"
      width="325.80725"
      height="275.30484"
      x="332.20602"
      y="0.53694034" />
   <rect id="cda-prod"
      width="56.351658"
      height="144.78999"
      x="466.8718"
      y="21.220608">
   </rect>
   <text
      x="471.40134"
      y="34.963356"
      id="text1-5-5-2-7">
      <tspan
         id="tspan1-0-0-6-6"
         x="471.40134"
         y="34.963356">CDA</tspan>
      <tspan
         x="471.40134"
         y="49.013981"
         id="tspan9-5-7-1">Master</tspan>
      <tspan
         x="471.40134"
         y="63.064606"
         id="tspan70-6-8">(SAP)</tspan>
   </text>
   <rect id="workday-cda-prod"
      width="56.708965"
      height="96.879555"
      x="467.49289"
      y="169.94534">
   </rect>
   <text
      x="472.20111"
      y="183.86679"
      id="text1-5-9-7-3-6">
      <tspan
         x="472.20111"
         y="183.86679"
         id="tspan10-9-6-8">CDA</tspan>
      <tspan
         x="472.20111"
         y="197.91742"
         id="tspan11-7-57-8">(WD)</tspan>
   </text>
   <path
      fill="#505158" stroke="#000000" stroke-width="1.0"
      d="m 531.98696,170.54378 110.89732,0.42905 9.85755,10.29712 -9.03608,9.00999 -110.89735,-0.42905 10.67902,-10.29712 z"
      id="workday-cda-colleague-api-prod">
   </path>
   <text
      x="548.92151"
      y="183.98743"
      id="text8-00-9-5-7">
      <tspan
         id="tspan8-30-9-0-2"
         x="548.92151"
         y="183.98743">Colleague API</tspan>
   </text>
   <path
      fill="#505158" stroke="#000000" stroke-width="1.0"
      d="m 532.42079,197.07586 110.89733,0.42904 9.85755,10.29714 -9.03608,9.00997 -110.89735,-0.42903 10.67902,-10.29714 z"
      id="workday-cda-org-unit-api-prod">
   </path>
   <text
      x="549.35529"
      y="210.51952"
      id="text8-0-8-1-5-5">
      <tspan
         id="tspan8-7-6-5-9-1"
         x="549.35529"
         y="210.51952">OrgUnit API</tspan>
   </text>
   <path
      fill="#505158" stroke="#000000" stroke-width="1.0"
      d="m 532.43949,222.05194 110.89733,0.42903 9.85755,10.29714 -9.03608,9.01 -110.89735,-0.42906 10.67902,-10.29714 z"
      id="workday-cda-position-api-prod">
   </path>
   <text
      x="549.37402"
      y="235.49561"
      id="text8-8-1-3-8-2">
      <tspan
         id="tspan8-4-6-0-9-9"
         x="549.37402"
         y="235.49561">Position API</tspan>
   </text>
   <path
      fill="#505158" stroke="#000000" stroke-width="1.0"
      d="m 532.67942,246.15775 110.89733,0.42906 9.85755,10.29712 -9.03609,9.00999 -110.89734,-0.42905 10.67901,-10.29712 z"
      id="workday-cda-file-api-prod">
   </path>
   <text
      x="549.61395"
      y="259.60141"
      id="text8-3-7-3-7-3-8">
      <tspan
         id="tspan8-3-4-1-6-26-0"
         x="549.61395"
         y="259.60141">File API</tspan>
   </text>
   <path
      fill="#505158" stroke="#000000" stroke-width="1.0"
      d="m 531.1872,21.640366 110.89732,0.429055 9.85755,10.29712 -9.03608,9.009994 -110.89735,-0.429055 10.67902,-10.297119 z"
      id="cda-colleague-api-prod">
   </path>
   <text
      x="548.1217"
      y="35.084023"
      id="text8-5-4-5">
      <tspan
         id="tspan8-2-4-5"
         x="548.1217"
         y="35.084023">Colleague API</tspan>
   </text>
   <path
      fill="#505158" stroke="#000000" stroke-width="1.0"
      d="m 531.62103,48.17245 110.89733,0.429035 9.85755,10.29712 -9.03608,9.009994 -110.89735,-0.429035 10.67901,-10.297139 z"
      id="cda-org-unit-api-prod">
   </path>
   <text
      x="548.55554"
      y="61.616077"
      id="text8-0-4-8-7">
      <tspan
         id="tspan8-7-7-9-3"
         x="548.55554"
         y="61.616077">OrgUnit API</tspan>
   </text>
   <path
      fill="#505158" stroke="#000000" stroke-width="1.0"
      d="M 531.63971,73.148526 642.53704,73.577561 652.39459,83.8747 643.3585,92.884674 532.46116,92.455639 543.14017,82.1585 Z"
      id="cda-position-api-prod">
   </path>
   <text
      x="548.57422"
      y="86.592171"
      id="text8-8-6-7-3">
      <tspan
         id="tspan8-4-1-2-5"
         x="548.57422"
         y="86.592171">Position API</tspan>
   </text>
   <path
      fill="#505158" stroke="#000000" stroke-width="1.0"
      d="m 531.25867,97.602307 110.89733,0.429035 9.85755,10.297138 -9.03609,9.00998 -110.89734,-0.42904 10.67901,-10.29714 z"
      id="cda-job-api-prod">
   </path>
   <text
      x="548.19318"
      y="111.04597"
      id="text8-4-1-2-9">
      <tspan
         id="tspan8-1-3-58-4"
         x="548.19318"
         y="111.04597">Job API</tspan>
   </text>
   <path
      fill="#505158" stroke="#000000" stroke-width="1.0"
      d="m 531.16461,121.68453 110.89733,0.42905 9.85755,10.29712 -9.03608,9.00999 -110.89735,-0.42905 10.67902,-10.29712 z"
      id="cda-location-api-prod">
   </path>
   <text
      x="548.09912"
      y="135.1282"
      id="text8-3-9-3-4">
      <tspan
         id="tspan8-3-43-3-7"
         x="548.09912"
         y="135.1282">Location API</tspan>
   </text>
   <path
      fill="#505158" stroke="#000000" stroke-width="1.0"
      d="m 531.87964,145.52208 110.89733,0.42905 9.85755,10.29712 -9.03609,9.01 -110.89734,-0.42906 10.67901,-10.29712 z"
      id="cda-file-api-prod">
   </path>
   <text
      x="548.81415"
      y="158.96576"
      id="text8-3-7-1-16-5">
      <tspan
         id="tspan8-3-4-7-3-0"
         x="548.81415"
         y="158.96576">File API</tspan>
   </text>
   <path
      fill="#505158" stroke="#000000" stroke-width="1.0"
      d="m 341.2687,21.592214 110.89733,0.429054 9.85755,10.29712 -9.03608,9.009994 -110.89735,-0.429055 10.67902,-10.297119 z"
      id="cda-sap-api-prod">
   </path>
   <text
      x="358.20319"
      y="35.035892"
      id="text8-48-4-96-2">
      <tspan
         id="tspan8-75-6-6-1"
         x="358.20319"
         y="35.035892">SAP API</tspan>
   </text>
   <path
      fill="#505158" stroke="#000000" stroke-width="1.0"
      d="m 342.14946,170.1344 110.89732,0.42905 9.85755,10.29712 -9.03608,9.01 -110.89735,-0.42906 10.67902,-10.29712 z"
      id="cda-workday-api-prod">
   </path>
   <text
      x="359.08398"
      y="183.57806"
      id="text8-0-3-2-5-0">
      <tspan
         id="tspan8-7-2-2-7-0"
         x="359.08398"
         y="183.57806">Workday API</tspan>
   </text>
   <text
      x="14.853845"
      y="55.36433"
      id="text81">
      <tspan
         id="tspan81"
         x="14.853845"
         y="55.36433">DEV</tspan>
   </text>
   <text
      x="177.87152"
      y="55.681709"
      id="text81-6">
      <tspan
         id="tspan81-2"
         x="177.87152"
         y="55.681709">TEST</tspan>
   </text>
   <text
      x="3.7489855"
      y="194.24124"
      id="text81-9">
      <tspan
         id="tspan81-25"
         x="3.7489855"
         y="194.24124">STRESS</tspan>
   </text>
   <text
      x="176.65833"
      y="187.47165"
      id="text81-1">
      <tspan
         id="tspan81-4"
         x="176.65833"
         y="187.47165">SAND</tspan>
      <tspan
         x="176.65833"
         y="205.11053"
         id="tspan82">BOX</tspan>
   </text>
   <text
      x="358.70319"
      y="113.91897"
      id="text81-6-3">
      <tspan
         id="tspan81-2-5" x="358.70319"
         y="113.91897">PROD</tspan>
   </text>
</svg>